<?xml version="1.0" standalone="no"?>
<!DOCTYPE svg PUBLIC "-//W3C//DTD SVG 20010904//EN"
 "http://www.w3.org/TR/2001/REC-SVG-20010904/DTD/svg10.dtd">
<svg version="1.0" xmlns="http://www.w3.org/2000/svg"
 width="297.000000pt" height="247.000000pt" viewBox="0 0 297.000000 247.000000"
 preserveAspectRatio="xMidYMid meet">

<g transform="translate(0.000000,247.000000) scale(0.100000,-0.100000)"
fill="#000000" stroke="none">
<path d="M0 1235 l0 -1235 1485 0 1485 0 0 1235 0 1235 -1485 0 -1485 0 0
-1235z m1025 733 c22 -25 289 -538 283 -543 -5 -5 -75 -7 -170 -6 l-87 1 -145
284 c-80 156 -146 287 -146 291 0 4 54 5 121 3 116 -3 122 -4 144 -30z m1197
-253 c15 -6 7 -28 -61 -164 l-79 -156 -71 -20 c-39 -10 -71 -21 -71 -23 0 -1
7 -17 16 -33 12 -25 13 -37 4 -65 -7 -19 -20 -40 -29 -46 -17 -10 -15 -16 20
-69 22 -32 39 -60 39 -64 0 -3 -13 -5 -29 -5 -34 0 -51 15 -82 70 -14 25 -30
40 -42 40 -16 0 -18 -7 -16 -52 l3 -53 -32 -3 -33 -3 3 148 c3 139 4 148 23
151 15 2 47 56 128 212 l107 209 93 -34 c50 -18 100 -36 109 -40z m-1765 -353
c7 -4 30 -54 51 -111 l39 -103 37 106 c31 87 42 107 62 112 12 3 27 3 33 0 6
-4 -14 -64 -49 -149 -54 -133 -60 -142 -85 -142 -25 0 -30 9 -84 142 -32 79
-56 145 -53 148 8 7 35 6 49 -3z m443 -17 c0 -24 -3 -25 -60 -25 l-60 0 0 -40
0 -40 45 0 c38 0 45 -3 45 -20 0 -17 -7 -20 -45 -20 l-45 0 0 -40 0 -40 60 0
c57 0 60 -1 60 -25 0 -25 -1 -25 -90 -25 l-90 0 0 150 0 150 90 0 c89 0 90 0
90 -25z m250 0 c19 -17 19 -20 4 -36 -15 -17 -19 -17 -46 -3 -37 19 -82 10
-103 -19 -19 -28 -19 -106 0 -134 21 -30 78 -40 109 -20 22 15 25 15 41 -3 16
-17 15 -19 -8 -35 -91 -59 -209 -3 -223 106 -7 58 26 125 76 151 43 24 121 20
150 -7z m258 -2 c3 -18 -3 -22 -36 -28 -39 -6 -39 -7 -46 -58 -3 -29 -6 -83
-6 -120 l0 -68 -27 3 -28 3 -3 118 -3 117 -39 0 c-38 0 -40 2 -40 30 l0 31
113 -3 c106 -3 112 -4 115 -25z m230 7 c33 -15 47 -29 62 -62 24 -53 25 -76 4
-128 -42 -104 -190 -119 -258 -27 -16 21 -21 44 -21 87 0 68 21 105 76 132 44
23 83 22 137 -2z m532 -80 c0 -94 2 -103 25 -125 29 -30 45 -31 76 -6 22 18
24 28 27 126 l4 106 26 -3 c27 -3 27 -4 30 -88 4 -98 -8 -147 -42 -179 -54
-51 -159 -32 -190 34 -16 34 -23 214 -9 228 3 4 17 7 30 7 23 0 23 -2 23 -100z
m316 44 l36 -56 35 56 c29 47 39 56 64 56 16 0 29 -2 29 -6 0 -3 -17 -31 -38
-62 -21 -31 -41 -62 -44 -67 -4 -6 13 -42 38 -80 24 -39 44 -74 44 -78 0 -5
-14 -7 -32 -5 -27 3 -37 12 -66 61 l-35 58 -25 -43 c-14 -24 -32 -51 -40 -60
-16 -19 -62 -25 -62 -8 0 5 20 40 44 77 l43 67 -43 67 c-24 37 -44 70 -44 73
0 3 14 6 30 6 26 0 36 -8 66 -56z m-1506 -318 c0 -49 -25 -71 -46 -41 -16 22
-6 55 17 55 11 0 19 7 19 15 0 8 2 15 5 15 3 0 5 -20 5 -44z m350 34 c0 -5 -4
-10 -10 -10 -5 0 -10 5 -10 10 0 6 5 10 10 10 6 0 10 -4 10 -10z m393 -22 c6
-4 18 -3 28 2 10 6 23 5 34 -4 22 -16 12 -36 -18 -37 -17 -1 -15 -3 8 -9 26
-6 28 -8 11 -15 -24 -10 -50 6 -54 34 -4 27 -22 28 -22 1 0 -11 5 -20 10 -20
6 0 10 -5 10 -11 0 -24 -35 -2 -41 26 -6 33 11 82 19 55 3 -8 10 -18 15 -22z
m295 -59 c-20 -13 -26 -11 -38 10 -13 26 -3 51 21 51 11 0 20 8 21 18 1 9 3
-3 5 -27 3 -29 0 -47 -9 -52z m-859 53 c-13 -5 -11 -42 2 -42 5 0 7 -5 3 -11
-13 -22 -29 21 -25 69 1 10 4 10 15 0 8 -7 10 -14 5 -16z m1190 0 c-13 -5 -11
-42 2 -42 5 0 7 -5 3 -11 -13 -22 -29 21 -25 69 1 10 4 10 15 0 8 -7 10 -14 5
-16z m-951 -25 c2 -21 -1 -37 -7 -37 -6 0 -11 14 -11 31 0 17 -4 28 -10 24 -5
-3 -10 -17 -10 -31 0 -13 -4 -24 -10 -24 -5 0 -10 15 -10 34 0 25 5 36 18 39
30 8 37 1 40 -36z m69 32 c8 -8 17 -8 33 1 27 15 50 -2 50 -37 0 -28 -25 -41
-51 -24 -12 7 -19 7 -19 1 0 -23 -19 -8 -22 18 -2 15 -7 27 -13 27 -5 0 -11
-12 -13 -27 -5 -40 -22 -35 -22 6 0 32 4 37 41 45 3 0 10 -4 16 -10z m201 -1
c7 -7 12 -25 12 -40 0 -24 -4 -28 -30 -28 -23 0 -30 4 -30 20 0 11 6 20 14 20
8 0 18 5 22 12 5 8 2 9 -9 5 -17 -6 -23 4 -10 16 9 10 17 9 31 -5z m222 -28
c0 -20 -6 -29 -22 -34 -36 -9 -47 12 -18 35 16 14 19 19 8 15 -20 -6 -25 10
-5 17 22 8 37 -5 37 -33z m-1164 12 l13 23 9 -25 10 -25 11 25 12 25 -6 -25
c-2 -14 -5 -28 -5 -32 0 -17 -19 -7 -26 14 -6 21 -7 20 -19 -8 l-13 -29 -11
28 c-14 36 -13 59 1 29 l12 -23 12 23z m122 1 c2 -8 -5 -13 -18 -13 -13 0 -20
-5 -17 -12 2 -7 13 -12 23 -10 18 2 18 2 0 -9 -25 -15 -51 10 -41 40 7 24 45
26 53 4z m59 -35 c-2 -13 -4 -5 -4 17 -1 22 1 32 4 23 2 -10 2 -28 0 -40z
m151 35 c2 -8 -6 -13 -22 -13 -14 0 -26 -4 -26 -10 0 -10 15 -14 35 -10 6 1 5
-4 -2 -11 -10 -10 -15 -9 -28 1 -16 13 -20 42 -8 54 11 10 46 3 51 -11z m60
-15 c2 -16 -2 -28 -8 -28 -6 0 -8 5 -5 10 3 6 -1 10 -10 10 -11 0 -15 -5 -11
-16 3 -8 2 -12 -4 -9 -15 10 -12 35 5 35 21 0 19 17 -2 24 -11 3 -7 4 7 3 19
-2 26 -8 28 -29z m116 17 c4 -11 -2 -15 -20 -15 -16 0 -24 -5 -21 -12 2 -7 12
-12 22 -11 12 1 14 -2 6 -10 -7 -7 -15 -6 -26 3 -15 13 -20 42 -8 53 12 12 41
7 47 -8z m96 -20 c0 -19 -4 -35 -10 -35 -5 0 -10 16 -10 35 0 19 5 35 10 35 6
0 10 -16 10 -35z m266 13 c3 12 11 22 16 22 5 0 7 -4 4 -9 -3 -4 -10 -21 -16
-37 l-12 -29 -13 25 c-8 14 -14 32 -14 40 0 9 6 5 14 -10 l15 -25 6 23z m360
-13 c1 -28 1 -28 -3 -2 -5 34 -33 36 -33 2 0 -14 -4 -25 -10 -25 -5 0 -10 14
-10 31 0 27 3 30 28 27 22 -2 27 -8 28 -33z m157 25 c-13 -5 -23 -13 -23 -18
0 -13 25 -33 34 -27 3 3 2 0 -3 -7 -13 -15 -41 7 -41 32 0 22 9 30 34 29 20 0
20 -1 -1 -9z m61 2 c-7 -4 -14 -18 -17 -32 -4 -21 -4 -20 -6 8 -1 24 3 32 17
32 11 0 13 -3 6 -8z m70 -7 c4 -11 -2 -15 -20 -15 -16 0 -24 -5 -21 -12 2 -7
12 -12 22 -11 11 1 14 -2 8 -8 -15 -15 -43 1 -43 25 0 13 3 26 7 29 12 12 41
7 47 -8z m64 -17 c2 -16 -1 -28 -7 -28 -6 0 -11 5 -11 10 0 6 -5 10 -11 10 -6
0 -8 -7 -5 -16 3 -8 2 -12 -4 -9 -15 10 -12 35 5 35 21 0 19 17 -2 24 -11 3
-7 4 7 3 19 -2 26 -8 28 -29z m116 17 c4 -11 -2 -15 -20 -15 -16 0 -24 -5 -21
-12 2 -7 12 -12 22 -11 11 1 14 -2 8 -8 -15 -15 -43 1 -43 25 0 13 3 26 7 29
12 12 41 7 47 -8z m-1167 -57 c-3 -8 -6 -5 -6 6 -1 11 2 17 5 13 3 -3 4 -12 1
-19z m376 -105 c86 1 157 -1 157 -6 0 -4 -45 -98 -101 -209 l-101 -201 -108
204 -109 204 45 3 c31 2 42 7 37 15 -5 9 -4 9 8 0 10 -8 63 -11 172 -10z"/>
<path d="M1820 1275 c0 -43 1 -45 29 -45 31 0 61 22 61 45 0 23 -30 45 -61 45
-28 0 -29 -2 -29 -45z"/>
<path d="M1514 1297 c-25 -22 -29 -32 -29 -76 0 -66 27 -96 86 -96 55 0 79 29
79 95 0 59 -22 88 -71 96 -29 5 -41 1 -65 -19z"/>
<path d="M940 980 c0 -11 7 -20 15 -20 8 0 15 9 15 20 0 11 -7 20 -15 20 -8 0
-15 -9 -15 -20z"/>
<path d="M1992 978 c2 -13 8 -23 13 -23 6 0 11 10 13 23 2 15 -2 22 -13 22
-11 0 -15 -7 -13 -22z"/>
<path d="M1505 990 c-7 -12 2 -30 16 -30 5 0 9 9 9 20 0 21 -15 27 -25 10z"/>
<path d="M1858 963 c7 -3 16 -2 19 1 4 3 -2 6 -13 5 -11 0 -14 -3 -6 -6z"/>
<path d="M818 993 c7 -3 16 -2 19 1 4 3 -2 6 -13 5 -11 0 -14 -3 -6 -6z"/>
<path d="M1018 993 c7 -3 16 -2 19 1 4 3 -2 6 -13 5 -11 0 -14 -3 -6 -6z"/>
<path d="M1198 993 c7 -3 16 -2 19 1 4 3 -2 6 -13 5 -11 0 -14 -3 -6 -6z"/>
<path d="M2208 993 c7 -3 16 -2 19 1 4 3 -2 6 -13 5 -11 0 -14 -3 -6 -6z"/>
<path d="M2388 993 c7 -3 16 -2 19 1 4 3 -2 6 -13 5 -11 0 -14 -3 -6 -6z"/>
</g>
</svg>
